<svg width="88" height="88" viewBox="0 0 88 88" fill="none" xmlns="http://www.w3.org/2000/svg">
<path fill-rule="evenodd" clip-rule="evenodd" d="M14.5334 71.8166C24.0722 81.7868 37.5067 88 52.3809 88H74.9047C82.1322 88 88 82.1322 88 74.9047V13.0953C88 5.86775 82.1322 0 74.9047 0H13.0953C5.86775 0 0 5.86775 0 13.0953V35.6191C0 39.0902 0.33836 42.483 0.983928 45.7661L21.3833 25.3667C22.0272 24.7228 23.2894 24.2 24.2 24.2H42.35C43.2606 24.2 44.5228 24.7228 45.1667 25.3667L52.7333 32.9333C53.3772 33.5772 54.6394 34.1 55.55 34.1H68.75C69.6606 34.1 70.9228 34.6228 71.5667 35.2667L77.4833 41.1833C78.1272 41.8272 78.1272 42.8728 77.4833 43.5167L71.5667 49.4333C70.9228 50.0772 69.6606 50.6 68.75 50.6H52.25C51.3394 50.6 50.0772 51.1228 49.4333 51.7667L48.4667 52.7333C47.8228 53.3772 48.0394 53.9 48.95 53.9H65.45C66.3606 53.9 66.5772 54.4228 65.9333 55.0667L58.3667 62.6333C57.7228 63.2772 56.4606 63.8 55.55 63.8H37.4C36.4894 63.8 35.2272 63.2772 34.5833 62.6333L30.3167 58.3667C29.6728 57.7228 28.6272 57.7228 27.9833 58.3667L14.5334 71.8166ZM35.2667 33.6167L41.1833 39.5333C41.8272 40.1772 41.6106 40.7 40.7 40.7H27.5C26.5894 40.7 26.3728 40.1772 27.0167 39.5333L32.9333 33.6167C33.5772 32.9728 34.6228 32.9728 35.2667 33.6167Z" fill="#42026F"/>
</svg>
