<svg width="291" height="88" viewBox="0 0 291 88" fill="none" xmlns="http://www.w3.org/2000/svg">
<path fill-rule="evenodd" clip-rule="evenodd" d="M14.5334 71.8166C24.0722 81.7868 37.5067 88 52.3809 88H74.9047C82.1322 88 88 82.1322 88 74.9047V13.0953C88 5.86775 82.1322 0 74.9047 0H13.0953C5.86775 0 0 5.86775 0 13.0953V35.6191C0 39.0902 0.33836 42.483 0.983928 45.7661L21.3833 25.3667C22.0272 24.7228 23.2894 24.2 24.2 24.2H42.35C43.2606 24.2 44.5228 24.7228 45.1667 25.3667L52.7333 32.9333C53.3772 33.5772 54.6394 34.1 55.55 34.1H68.75C69.6606 34.1 70.9228 34.6228 71.5667 35.2667L77.4833 41.1833C78.1272 41.8272 78.1272 42.8728 77.4833 43.5167L71.5667 49.4333C70.9228 50.0772 69.6606 50.6 68.75 50.6H52.25C51.3394 50.6 50.0772 51.1228 49.4333 51.7667L48.4667 52.7333C47.8228 53.3772 48.0394 53.9 48.95 53.9H65.45C66.3606 53.9 66.5772 54.4228 65.9333 55.0667L58.3667 62.6333C57.7228 63.2772 56.4606 63.8 55.55 63.8H37.4C36.4894 63.8 35.2272 63.2772 34.5833 62.6333L30.3167 58.3667C29.6728 57.7228 28.6272 57.7228 27.9833 58.3667L14.5334 71.8166ZM35.2667 33.6167L41.1833 39.5333C41.8272 40.1772 41.6106 40.7 40.7 40.7H27.5C26.5894 40.7 26.3728 40.1772 27.0167 39.5333L32.9333 33.6167C33.5772 32.9728 34.6228 32.9728 35.2667 33.6167Z" fill="#42026F"/>
<path d="M179.35 35.1998H210.15C220.774 35.1998 229.4 43.8255 229.4 54.4498V85.2497C229.4 86.7675 228.168 87.9997 226.65 87.9997H218.95C217.432 87.9997 216.2 86.7675 216.2 85.2497V59.3998C216.2 53.3287 211.271 48.3998 205.2 48.3998H192.55C191.032 48.3998 189.8 49.6321 189.8 51.1498V85.2497C189.8 86.7675 188.568 87.9997 187.05 87.9997H179.35C177.832 87.9997 176.6 86.7675 176.6 85.2497V37.9498C176.6 36.432 177.832 35.1998 179.35 35.1998Z" fill="black"/>
<path fill-rule="evenodd" clip-rule="evenodd" d="M257.45 35.1998H271.75C282.374 35.1998 291 43.8255 291 54.4498V68.7498C291 79.3741 282.374 87.9997 271.75 87.9997H257.45C246.825 87.9997 238.2 79.3741 238.2 68.7498V54.4498C238.2 43.8255 246.825 35.1998 257.45 35.1998ZM262.4 48.3998H266.8C272.871 48.3998 277.8 53.3287 277.8 59.3998V63.7998C277.8 69.8709 272.871 74.7997 266.8 74.7997H262.4C256.329 74.7997 251.4 69.8709 251.4 63.7998V59.3998C251.4 53.3287 256.329 48.3998 262.4 48.3998Z" fill="black"/>
<path fill-rule="evenodd" clip-rule="evenodd" d="M132.6 35.1999H112.25C101.626 35.1999 93 43.8256 93 54.4499V68.7499C93 79.3742 101.626 87.9998 112.25 87.9998H141.4C143.828 87.9998 145.8 86.0283 145.8 83.5998V50.0499V46.1999V2.74999C145.8 1.23217 144.617 0 143.16 0C137.332 0 132.6 4.92887 132.6 11V35.1999ZM117.2 48.3999H127.1C130.135 48.3999 132.6 50.8643 132.6 53.8999V69.2999C132.6 72.3354 130.135 74.7998 127.1 74.7998H117.2C111.129 74.7998 106.2 69.871 106.2 63.7999V59.3999C106.2 53.3288 111.129 48.3999 117.2 48.3999Z" fill="black"/>
<path fill-rule="evenodd" clip-rule="evenodd" d="M167.8 46.2001V85.25C167.8 86.7678 166.568 88 165.05 88H157.35C155.832 88 154.6 86.7678 154.6 85.25V37.9501C154.6 36.4323 155.783 35.2001 157.24 35.2001C163.068 35.2001 167.8 40.129 167.8 46.2001ZM157.35 17.6002H165.05C166.568 17.6002 167.8 18.8323 167.8 20.3502V28.0501C167.8 29.568 166.617 30.8001 165.16 30.8001C159.332 30.8001 154.6 26.0684 154.6 20.2402C154.6 18.7831 155.832 17.6002 157.35 17.6002Z" fill="black"/>
</svg>
